<svg width="165" height="161" viewBox="0 0 165 161" fill="none" xmlns="http://www.w3.org/2000/svg">
<g clip-path="url(#clip0_2577_562)">
<path d="M12.1426 70.8799L0 68.8702L1.4355 60.2065L3.33542 60.519L2.18702 67.4516L1.7817 66.9027L11.0955 68.4395L10.5382 68.828L11.6866 61.8616L13.5866 62.174L12.1426 70.8799ZM7.13526 68.2707L5.35356 67.9751L6.36685 61.8616L8.14855 62.1571L7.13526 68.2707Z" fill="#0C1E21"/>
<path d="M13.5794 62.1823L10.1849 57.5212L5.10156 59.1931L5.84464 56.8034L8.9774 55.883L9.3405 55.7817L9.36583 55.6973L9.12095 55.4102L7.05215 52.8938L7.76145 50.6055L10.9787 54.7769L16.442 52.9614L15.6989 55.3511L12.1608 56.4235L11.7386 56.5248L11.7133 56.6092L12.0004 56.947L14.2803 59.9193L13.5794 62.1823Z" fill="#0C1E21"/>
<path d="M19.2351 53.6707L8.54492 48.6549L9.39778 46.8394L10.9177 47.4558L10.9684 47.346C10.5631 46.9407 10.3182 46.4341 10.2337 45.8261C10.1493 45.2181 10.2675 44.5932 10.5631 43.9515C10.7995 43.4533 11.1035 43.048 11.4919 42.7271C11.8803 42.4062 12.3194 42.1867 12.8176 42.06C13.3158 41.9334 13.8647 41.9165 14.4558 42.0009C15.0469 42.0854 15.6802 42.288 16.3388 42.592C17.217 43.0058 17.901 43.4955 18.4076 44.0782C18.9058 44.6524 19.2098 45.2688 19.3111 45.9274C19.4125 46.5861 19.3111 47.2447 18.9987 47.9033C18.7961 48.334 18.5427 48.6886 18.2387 48.9842C17.9348 49.2797 17.597 49.4908 17.2423 49.6259C16.8792 49.761 16.5161 49.8117 16.1446 49.7779L16.1024 49.8708L20.1218 51.7538L19.2351 53.6707ZM17.1157 47.9033C17.3268 47.4558 17.3943 47.0251 17.3352 46.6029C17.2677 46.1892 17.0735 45.8092 16.7441 45.4545C16.4148 45.1083 15.9842 44.8043 15.4437 44.551C14.8949 44.2893 14.3798 44.1457 13.9154 44.1119C13.4425 44.0782 13.0372 44.1626 12.6741 44.3653C12.3194 44.5679 12.0323 44.8972 11.8212 45.3448C11.6101 45.7923 11.5341 46.2145 11.5848 46.6198C11.6355 47.0251 11.8043 47.3714 12.0746 47.6922C12.3448 48.0047 12.6825 48.258 13.0878 48.4522L13.9576 48.8575C14.3798 49.0517 14.7851 49.1446 15.1989 49.1362C15.6042 49.1277 15.9757 49.0264 16.3135 48.8237C16.6513 48.6295 16.913 48.3171 17.1157 47.9033Z" fill="#0C1E21"/>
<path d="M21.1273 43.5547L10.5469 37.2554L11.6277 35.4399L22.2082 41.7392L21.1273 43.5547Z" fill="#0C1E21"/>
<path d="M25.4841 37.154C25.0872 37.7028 24.6397 38.1251 24.1499 38.4375C23.6602 38.7499 23.1366 38.9441 22.5709 39.0286C22.0051 39.113 21.4309 39.0708 20.8483 38.8935C20.2656 38.7246 19.683 38.4206 19.1004 37.9984C18.3573 37.4495 17.8084 36.8331 17.4538 36.1322C17.0991 35.4314 16.964 34.6968 17.04 33.9283C17.116 33.1599 17.4284 32.4 17.9857 31.6484C18.3742 31.1165 18.8217 30.6942 19.3115 30.3818C19.8012 30.0694 20.3248 29.8836 20.8821 29.8076C21.4394 29.7316 22.0051 29.7823 22.5962 29.9427C23.1789 30.1032 23.7699 30.4071 24.361 30.8378C25.0957 31.3782 25.6445 31.9946 25.9907 32.6955C26.3454 33.3964 26.4805 34.1226 26.4129 34.891C26.3454 35.6594 26.033 36.4109 25.4841 37.154ZM24.0739 36.1407C24.3441 35.7692 24.4961 35.3807 24.5299 34.967C24.5637 34.5532 24.4539 34.1479 24.2175 33.7341C23.981 33.3204 23.6095 32.9319 23.1029 32.5604C22.7229 32.2817 22.3513 32.0791 21.9967 31.944C21.642 31.8173 21.2958 31.7582 20.9834 31.7751C20.6625 31.792 20.367 31.8764 20.1052 32.0284C19.8434 32.1804 19.607 32.4 19.3959 32.6786C19.1257 33.0502 18.9737 33.447 18.9399 33.8608C18.9061 34.2745 19.0075 34.6883 19.2439 35.1021C19.4803 35.5158 19.8603 35.9043 20.3754 36.2842C20.7554 36.5629 21.1269 36.7656 21.4816 36.9007C21.8362 37.0273 22.174 37.0864 22.4949 37.0611C22.8073 37.0442 23.1029 36.9513 23.3731 36.7909C23.6433 36.6304 23.8713 36.4193 24.0739 36.1407Z" fill="#0C1E21"/>
<path d="M28.7686 32.7294L22.1484 26.6581L23.4404 25.2479L24.6141 26.1936L24.6563 26.143C24.3692 25.6026 24.2848 25.079 24.4115 24.5724C24.5297 24.0657 24.7914 23.5929 25.1883 23.1622C25.2559 23.0862 25.3234 23.0187 25.3741 22.9596C25.4247 22.9004 25.4839 22.8329 25.543 22.7822L27.0122 24.1333C26.97 24.1839 26.9109 24.2431 26.8434 24.3106C26.7758 24.3782 26.6998 24.4542 26.6238 24.5386C26.2607 24.9355 26.0158 25.3239 25.9061 25.7123C25.7878 26.0923 25.7878 26.4639 25.9061 26.8269C26.0243 27.1816 26.2438 27.5278 26.5816 27.8656L30.2041 31.1925L28.7686 32.7294Z" fill="#0C1E21"/>
<path d="M35.5323 26.143C34.8483 26.751 34.1474 27.1226 33.4212 27.2661C32.695 27.4097 31.9773 27.3337 31.2595 27.0381C30.5502 26.7426 29.8832 26.2528 29.2752 25.5604C28.6419 24.8426 28.2112 24.108 28.0001 23.3649C27.789 22.6134 27.789 21.8872 28.0001 21.1864C28.2197 20.4855 28.6503 19.8437 29.3005 19.2611C30.0436 18.6025 30.7951 18.2225 31.5551 18.1296C32.3151 18.0283 33.0581 18.1718 33.7759 18.5602C34.4936 18.9487 35.1523 19.5398 35.7434 20.3419L31.0738 24.4964C31.4538 24.9271 31.8422 25.2226 32.2391 25.3915C32.6359 25.5604 33.0244 25.6026 33.4043 25.5351C33.7843 25.4591 34.139 25.2733 34.4767 24.9778C34.8736 24.6231 35.1185 24.26 35.2198 23.8716C35.3212 23.4831 35.2874 23.1116 35.1269 22.757L36.6131 21.4312C36.934 21.9294 37.1029 22.453 37.1113 23.0103C37.1197 23.5676 36.9931 24.1165 36.7229 24.6569C36.4527 25.1973 36.0558 25.6786 35.5323 26.143ZM30.3223 23.6351L30.0352 23.5929L33.455 20.553L33.4635 20.8655C33.1172 20.4348 32.7626 20.1477 32.3995 20.0042C32.0448 19.8522 31.6902 19.8269 31.344 19.9029C30.9978 19.9788 30.6685 20.1646 30.356 20.4433C30.0352 20.7304 29.8156 21.0428 29.7058 21.389C29.5876 21.7352 29.5792 22.0983 29.6805 22.4783C29.7818 22.8583 29.9929 23.2467 30.3223 23.6351Z" fill="#0C1E21"/>
<path d="M41.7647 20.6883L35.6934 9.97272L38.767 8.23324L43.521 12.5482L45.7925 14.8703L45.8938 14.8112L45.0663 11.67L43.7912 5.37913L46.8649 3.63965L52.9278 14.3552L51.0447 15.4192L48.1062 10.2345L46.0627 6.48531L45.9445 6.55286L46.8565 10.5976L48.1822 17.0489L46.5187 17.9862L41.6802 13.5277L38.6657 10.6736L38.5475 10.7411L40.7092 14.4228L43.6477 19.6074L41.7647 20.6883Z" fill="#0C1E21"/>
<path d="M58.0198 12.7762C57.3865 13.0042 56.7785 13.114 56.1959 13.1055C55.6133 13.0971 55.0728 12.962 54.5577 12.7171C54.0427 12.4722 53.5951 12.1175 53.1982 11.6447C52.8098 11.1718 52.4889 10.6061 52.2441 9.92208C51.9316 9.05234 51.8219 8.23326 51.9147 7.45641C52.0076 6.67955 52.3032 5.99558 52.7929 5.39605C53.2827 4.79652 53.9667 4.34054 54.8448 4.02811C55.4781 3.80011 56.0777 3.69879 56.6603 3.71567C57.243 3.73256 57.7834 3.86767 58.29 4.11255C58.7967 4.35742 59.2442 4.72052 59.6326 5.1765C60.0295 5.64093 60.3504 6.21513 60.5953 6.8991C60.9077 7.7604 61.009 8.57103 60.9161 9.34789C60.8233 10.1247 60.5277 10.8087 60.0464 11.4082C59.5651 12.0078 58.8896 12.4638 58.0198 12.7762ZM57.4118 11.1465C57.8425 10.986 58.1887 10.7496 58.442 10.4203C58.6954 10.091 58.8389 9.69409 58.8727 9.22122C58.9065 8.74835 58.8136 8.21638 58.6025 7.62529C58.442 7.17775 58.2478 6.80621 58.0198 6.49378C57.7918 6.18979 57.547 5.95336 57.2683 5.78448C56.9896 5.62404 56.7025 5.53115 56.3986 5.50582C56.0946 5.48893 55.7737 5.53115 55.4444 5.64937C55.0137 5.80981 54.6675 6.04624 54.4058 6.37556C54.144 6.70488 54.0004 7.10176 53.9667 7.57463C53.9329 8.04749 54.0258 8.58792 54.2453 9.18745C54.4057 9.63498 54.6 10.0065 54.828 10.319C55.0559 10.6229 55.3008 10.8594 55.571 11.0198C55.8412 11.1803 56.1368 11.2647 56.4492 11.29C56.7617 11.3154 57.0825 11.2647 57.4118 11.1465Z" fill="#0C1E21"/>
<path d="M63.1957 10.9353L61.1016 2.20414L62.9593 1.7566L63.4068 3.1921L63.4744 3.17521C63.5335 2.56724 63.7615 2.08592 64.1414 1.73972C64.5299 1.38506 65.0027 1.14019 65.5685 1.00508C65.6698 0.979747 65.7543 0.962859 65.8387 0.937527C65.9231 0.920638 65.9991 0.895306 66.0751 0.878418L66.5396 2.81212C66.472 2.829 66.396 2.84589 66.3031 2.86278C66.2102 2.87967 66.1089 2.905 65.9991 2.93033C65.4756 3.05699 65.0534 3.25121 64.7494 3.50453C64.437 3.75785 64.2343 4.06184 64.133 4.42494C64.0317 4.78803 64.0232 5.2018 64.1077 5.66622L65.2561 10.4456L63.1957 10.9353Z" fill="#0C1E21"/>
<path d="M72.4934 9.24633C71.5898 9.36455 70.7961 9.28011 70.1121 8.99301C69.4282 8.70591 68.8877 8.24149 68.4571 7.59974C68.0349 6.95798 67.7562 6.18113 67.6296 5.26072C67.5029 4.31498 67.562 3.47057 67.7984 2.72749C68.0349 1.98441 68.4486 1.38488 69.0228 0.920455C69.597 0.45603 70.3148 0.168931 71.1761 0.0507132C72.1556 -0.0843924 72.9916 0.0253809 73.684 0.371589C74.368 0.717797 74.9084 1.24977 75.2884 1.97597C75.6683 2.69372 75.8794 3.55501 75.9217 4.55142L69.7321 5.37894C69.8081 5.94469 69.9686 6.40912 70.1966 6.77221C70.433 7.13531 70.7285 7.38863 71.0832 7.54063C71.4379 7.69262 71.8432 7.73484 72.2823 7.67573C72.8058 7.60818 73.2196 7.4393 73.5151 7.16909C73.8106 6.89888 73.9964 6.578 74.0555 6.18957L76.0314 5.9278C76.023 6.51889 75.8626 7.05087 75.567 7.51529C75.263 7.97972 74.8493 8.3597 74.3257 8.66369C73.7938 8.95924 73.1858 9.15345 72.4934 9.24633ZM69.5802 4.25587L69.369 4.06166L73.9035 3.45368L73.7346 3.71545C73.684 3.16658 73.5489 2.72749 73.3378 2.40662C73.1267 2.08574 72.848 1.85775 72.5187 1.73109C72.1809 1.60443 71.8094 1.57065 71.3956 1.62976C70.9734 1.68887 70.6188 1.82397 70.3232 2.04352C70.0277 2.26307 69.825 2.55861 69.6899 2.93859C69.5548 3.31013 69.521 3.74923 69.5802 4.25587Z" fill="#0C1E21"/>
<path d="M127.557 25.4846L136.153 16.6689L142.444 22.7994L141.101 24.1757L136.068 19.2697L136.752 19.2528L130.157 26.0081V25.3241L135.207 30.2555L133.864 31.6319L127.557 25.4846ZM132.564 22.8669L133.822 21.575L138.255 25.8983L136.997 27.1903L132.564 22.8669Z" fill="#0C1E21"/>
<path d="M133.881 31.6487L139.648 31.5221L141.177 26.3965L142.713 28.3724L141.675 31.4714L141.548 31.826L141.599 31.8936L141.979 31.8598L145.221 31.598L146.699 33.4895L141.447 33.7513L139.817 39.2737L138.28 37.2978L139.412 33.7766L139.572 33.3713L139.522 33.3038L139.082 33.346L135.342 33.5149L133.881 31.6487Z" fill="#0C1E21"/>
<path d="M137.641 41.148L147.85 35.2202L148.863 36.9597L147.486 37.8548L147.546 37.9561C148.111 37.8463 148.66 37.9392 149.209 38.2179C149.758 38.4965 150.205 38.9441 150.56 39.5605C150.839 40.0333 150.999 40.5231 151.033 41.0213C151.067 41.5195 150.999 42.0093 150.822 42.4906C150.645 42.9719 150.341 43.4363 149.935 43.8754C149.53 44.3145 149.006 44.7198 148.373 45.0829C147.537 45.5727 146.735 45.8513 145.975 45.9358C145.215 46.0202 144.539 45.9104 143.94 45.6233C143.34 45.3362 142.859 44.8718 142.488 44.2385C142.251 43.8332 142.099 43.4194 142.032 42.9972C141.964 42.5835 141.981 42.1866 142.074 41.8066C142.167 41.4351 142.336 41.1058 142.58 40.8187L142.53 40.7342L138.688 42.9635L137.641 41.148ZM143.594 42.6932C143.839 43.1239 144.159 43.4279 144.539 43.6136C144.919 43.7994 145.342 43.8501 145.815 43.7825C146.287 43.7065 146.777 43.5208 147.301 43.2252C147.824 42.9212 148.238 42.5835 148.534 42.2204C148.829 41.8573 148.989 41.4688 149.032 41.0551C149.065 40.6413 148.956 40.2276 148.711 39.7969C148.466 39.3663 148.162 39.0623 147.799 38.885C147.436 38.7076 147.056 38.6316 146.642 38.6739C146.228 38.7161 145.831 38.8512 145.443 39.0792L144.607 39.5605C144.21 39.7885 143.898 40.0756 143.67 40.4133C143.442 40.7511 143.315 41.1142 143.29 41.5111C143.256 41.8995 143.366 42.2964 143.594 42.6932Z" fill="#0C1E21"/>
<path d="M144.885 48.4777L156.09 43.3774L156.968 45.3027L145.763 50.4029L144.885 48.4777Z" fill="#0C1E21"/>
<path d="M147.653 55.7057C147.433 55.064 147.332 54.456 147.357 53.8818C147.383 53.2991 147.518 52.7587 147.771 52.2521C148.024 51.7454 148.388 51.2979 148.86 50.9095C149.333 50.5295 149.916 50.217 150.6 49.9806C151.47 49.6851 152.297 49.5837 153.074 49.6935C153.851 49.8033 154.535 50.1073 155.117 50.6055C155.709 51.1037 156.148 51.7961 156.452 52.6827C156.671 53.3076 156.764 53.9156 156.739 54.4982C156.713 55.0808 156.57 55.6213 156.317 56.1195C156.063 56.6177 155.7 57.0652 155.227 57.4452C154.763 57.8336 154.18 58.146 153.488 58.3825C152.626 58.678 151.807 58.7709 151.031 58.6611C150.254 58.5514 149.578 58.2474 148.987 57.7576C148.396 57.2679 147.948 56.5839 147.653 55.7057ZM149.291 55.1315C149.443 55.5706 149.679 55.9168 150 56.1786C150.321 56.4403 150.718 56.5839 151.191 56.6261C151.664 56.6683 152.196 56.5839 152.795 56.3812C153.243 56.2292 153.623 56.0435 153.935 55.8239C154.248 55.6044 154.484 55.3595 154.653 55.0893C154.822 54.8191 154.915 54.5235 154.949 54.2195C154.974 53.9156 154.932 53.5947 154.813 53.2654C154.661 52.8263 154.425 52.4801 154.104 52.2183C153.783 51.9565 153.386 51.8045 152.914 51.7623C152.441 51.7201 151.9 51.8045 151.292 52.0156C150.845 52.1676 150.465 52.3534 150.152 52.5729C149.84 52.7925 149.603 53.0374 149.443 53.3076C149.283 53.5778 149.19 53.8649 149.164 54.1773C149.131 54.4729 149.181 54.7937 149.291 55.1315Z" fill="#0C1E21"/>
<path d="M149.402 60.9073L158.167 58.9482L158.581 60.8144L157.137 61.2366L157.154 61.3041C157.762 61.3801 158.235 61.6081 158.581 61.9966C158.927 62.385 159.164 62.8663 159.29 63.4405C159.316 63.5418 159.333 63.6263 159.35 63.7107C159.366 63.7952 159.383 63.8712 159.4 63.9472L157.458 64.3778C157.441 64.3102 157.424 64.2342 157.416 64.1329C157.399 64.04 157.382 63.9387 157.357 63.8289C157.238 63.3054 157.053 62.8832 156.808 62.5708C156.563 62.2583 156.259 62.0472 155.896 61.9375C155.541 61.8277 155.127 61.8108 154.655 61.8952L149.858 62.9676L149.402 60.9073Z" fill="#0C1E21"/>
<path d="M150.938 70.2298C150.828 69.3263 150.929 68.5325 151.225 67.857C151.52 67.1815 152.002 66.6326 152.652 66.2188C153.302 65.8051 154.079 65.5433 154.999 65.4335C155.945 65.3238 156.789 65.3913 157.532 65.6446C158.267 65.898 158.867 66.3117 159.323 66.8944C159.779 67.477 160.057 68.1948 160.159 69.056C160.277 70.044 160.159 70.8715 159.796 71.5555C159.432 72.2395 158.9 72.763 158.166 73.1345C157.44 73.5061 156.578 73.7003 155.582 73.7256L154.856 67.5192C154.282 67.5868 153.817 67.7303 153.454 67.9668C153.091 68.1948 152.829 68.4903 152.669 68.8449C152.508 69.1996 152.458 69.5965 152.508 70.044C152.567 70.5675 152.736 70.9813 152.998 71.2853C153.26 71.5893 153.581 71.7751 153.961 71.8426L154.197 73.8185C153.606 73.7932 153.074 73.6328 152.618 73.3203C152.154 73.0079 151.782 72.5941 151.495 72.0621C151.208 71.5302 151.022 70.9222 150.938 70.2298ZM155.979 67.3926L156.173 67.1815L156.705 71.7244L156.443 71.5471C156.992 71.5048 157.431 71.3782 157.76 71.1671C158.09 70.956 158.318 70.6858 158.444 70.3564C158.571 70.0271 158.613 69.6471 158.571 69.2334C158.52 68.8112 158.385 68.4481 158.174 68.161C157.963 67.8654 157.668 67.6543 157.288 67.5192C156.925 67.3926 156.485 67.3503 155.979 67.3926Z" fill="#0C1E21"/>
<path d="M151.85 78.4624L164.11 79.5939L163.789 83.1067L157.532 84.5506L154.332 85.0826L154.324 85.2008L157.372 86.3154L163.257 88.8571L162.937 92.3698L150.676 91.2383L150.878 89.0851L156.815 89.6339L161.062 90.0984L161.07 89.9633L157.228 88.4011L151.174 85.8088L151.351 83.9088L157.777 82.4818L161.839 81.6374L161.847 81.5023L157.583 81.173L151.647 80.6241L151.85 78.4624Z" fill="#0C1E21"/>
<path d="M149.057 96.3474C149.234 95.6972 149.487 95.1315 149.825 94.6671C150.163 94.1942 150.585 93.8227 151.075 93.544C151.573 93.2653 152.122 93.0965 152.73 93.0374C153.338 92.9867 153.988 93.0458 154.689 93.2316C155.584 93.468 156.319 93.848 156.901 94.3715C157.484 94.8951 157.881 95.5284 158.092 96.2714C158.303 97.0145 158.286 97.8336 158.05 98.7371C157.881 99.3789 157.619 99.9362 157.273 100.401C156.927 100.865 156.505 101.237 156.015 101.507C155.525 101.777 154.976 101.946 154.368 102.005C153.76 102.064 153.11 102.005 152.401 101.811C151.523 101.574 150.788 101.194 150.205 100.671C149.623 100.147 149.226 99.5224 149.015 98.7793C148.804 98.0532 148.82 97.2341 149.057 96.3474ZM150.746 96.7781C150.627 97.2256 150.627 97.6478 150.754 98.0363C150.872 98.4331 151.126 98.7793 151.489 99.0749C151.86 99.3704 152.35 99.5984 152.958 99.7589C153.414 99.8771 153.836 99.9362 154.216 99.9277C154.596 99.9193 154.934 99.8517 155.229 99.7166C155.517 99.5815 155.761 99.3958 155.956 99.1593C156.15 98.9229 156.285 98.6273 156.378 98.2896C156.496 97.842 156.496 97.4198 156.378 97.023C156.26 96.6261 156.015 96.2714 155.643 95.9759C155.272 95.6804 154.782 95.4524 154.157 95.2835C153.701 95.1653 153.279 95.1062 152.899 95.1146C152.519 95.123 152.181 95.199 151.903 95.3257C151.615 95.4608 151.379 95.6466 151.185 95.8915C150.974 96.1448 150.83 96.4403 150.746 96.7781Z" fill="#0C1E21"/>
<path d="M147.612 101.642L155.989 104.901L155.296 106.683L153.861 106.235L153.835 106.294C154.3 106.691 154.562 107.147 154.638 107.662C154.705 108.177 154.638 108.709 154.427 109.258C154.393 109.351 154.359 109.435 154.325 109.52C154.291 109.604 154.266 109.672 154.232 109.748L152.375 109.022C152.4 108.963 152.434 108.887 152.468 108.794C152.51 108.709 152.544 108.608 152.586 108.507C152.78 108 152.864 107.552 152.831 107.156C152.797 106.759 152.662 106.413 152.425 106.117C152.189 105.821 151.851 105.585 151.42 105.391L146.844 103.609L147.612 101.642Z" fill="#0C1E21"/>
<path d="M143.702 110.221C144.115 109.41 144.639 108.811 145.264 108.414C145.889 108.017 146.59 107.831 147.358 107.848C148.126 107.865 148.92 108.085 149.748 108.507C150.601 108.946 151.259 109.469 151.732 110.094C152.205 110.719 152.467 111.395 152.517 112.129C152.568 112.864 152.399 113.616 152.002 114.392C151.546 115.271 150.989 115.895 150.313 116.267C149.638 116.639 148.895 116.765 148.084 116.672C147.274 116.571 146.446 116.259 145.61 115.727L148.464 110.17C147.958 109.909 147.485 109.773 147.054 109.757C146.623 109.748 146.243 109.841 145.922 110.044C145.593 110.246 145.331 110.55 145.12 110.956C144.875 111.429 144.783 111.859 144.833 112.256C144.884 112.653 145.044 112.991 145.323 113.261L144.411 115.034C143.93 114.688 143.583 114.257 143.372 113.742C143.161 113.227 143.085 112.67 143.144 112.07C143.195 111.454 143.381 110.837 143.702 110.221ZM149.469 110.669L149.748 110.601L147.662 114.671L147.544 114.384C148.025 114.654 148.456 114.798 148.844 114.806C149.233 114.815 149.57 114.722 149.866 114.511C150.161 114.3 150.398 114.021 150.592 113.649C150.786 113.269 150.879 112.898 150.862 112.535C150.845 112.172 150.719 111.825 150.491 111.505C150.254 111.192 149.917 110.913 149.469 110.669Z" fill="#0C1E21"/>
<path d="M111.648 141.591L116.258 153.007L108.118 156.3L107.4 154.519L113.911 151.884L113.658 152.517L110.119 143.761L110.744 144.04L104.2 146.683L103.482 144.901L111.648 141.591ZM112.028 147.223L112.703 148.895L106.961 151.217L106.286 149.545L112.028 147.223Z" fill="#0C1E21"/>
<path d="M103.474 144.901L101.262 150.229L105.34 153.7L102.917 154.308L100.502 152.112L100.223 151.85L100.138 151.867L100.02 152.23L98.9478 155.304L96.6257 155.887L98.5088 150.972L94.1094 147.257L96.5328 146.649L99.294 149.106L99.598 149.41L99.6825 149.393L99.8176 148.971L101.169 145.484L103.474 144.901Z" fill="#0C1E21"/>
<path d="M93.2742 144.496L94.5662 156.233L92.5649 156.452L92.3032 154.831L92.185 154.848C92.0499 155.405 91.7459 155.878 91.273 156.267C90.7917 156.655 90.2006 156.883 89.4997 156.959C88.9509 157.018 88.4442 156.968 87.9714 156.807C87.4985 156.647 87.0847 156.385 86.7132 156.022C86.3416 155.659 86.0461 155.203 85.8097 154.654C85.5732 154.105 85.4128 153.463 85.3368 152.737C85.2355 151.774 85.2946 150.93 85.5226 150.204C85.7506 149.478 86.1221 148.895 86.6287 148.464C87.1354 148.034 87.7518 147.78 88.478 147.696C88.9509 147.645 89.39 147.671 89.7953 147.78C90.2006 147.89 90.5637 148.059 90.8592 148.304C91.1632 148.54 91.3997 148.827 91.5601 149.165L91.6614 149.157L91.1801 144.74L93.2742 144.496ZM89.4491 149.317C88.9593 149.368 88.554 149.537 88.2331 149.807C87.9122 150.077 87.6927 150.449 87.566 150.905C87.4394 151.369 87.414 151.893 87.4732 152.484C87.5407 153.092 87.6843 153.598 87.8954 154.021C88.1149 154.443 88.402 154.747 88.7651 154.941C89.1282 155.135 89.5504 155.211 90.0486 155.161C90.5384 155.11 90.9437 154.949 91.2561 154.696C91.5685 154.443 91.7881 154.113 91.9147 153.725C92.0414 153.328 92.0836 152.914 92.033 152.467L91.9316 151.513C91.881 151.057 91.7459 150.651 91.5263 150.305C91.3068 149.959 91.0197 149.697 90.6735 149.511C90.3104 149.334 89.9135 149.267 89.4491 149.317Z" fill="#0C1E21"/>
<path d="M83.5974 148.152L83.8 160.463L81.689 160.497L81.4863 148.186L83.5974 148.152Z" fill="#0C1E21"/>
<path d="M75.8884 147.789C76.5639 147.848 77.155 148 77.6785 148.253C78.202 148.506 78.6411 148.853 79.0042 149.283C79.3673 149.722 79.6291 150.229 79.7895 150.82C79.95 151.411 80.0006 152.061 79.9415 152.779C79.8655 153.7 79.6207 154.493 79.2153 155.16C78.81 155.827 78.2527 156.326 77.5603 156.663C76.8679 157.001 76.0572 157.136 75.12 157.052C74.4613 157.001 73.8702 156.841 73.3467 156.587C72.8232 156.334 72.3925 155.979 72.0379 155.549C71.6832 155.11 71.4214 154.603 71.261 154.02C71.1006 153.438 71.0415 152.779 71.1006 152.053C71.1766 151.141 71.4214 150.356 71.8268 149.689C72.2321 149.021 72.7894 148.523 73.4734 148.177C74.1573 147.831 74.968 147.713 75.8884 147.789ZM75.7617 149.52C75.3057 149.486 74.892 149.553 74.5204 149.748C74.1573 149.942 73.8618 150.237 73.6338 150.66C73.4058 151.082 73.2707 151.597 73.22 152.23C73.1778 152.703 73.2031 153.125 73.2791 153.497C73.3551 153.868 73.4818 154.189 73.6676 154.451C73.8533 154.713 74.0729 154.915 74.3431 155.067C74.6133 155.211 74.9257 155.304 75.2719 155.329C75.7279 155.363 76.1501 155.295 76.5217 155.101C76.8932 154.915 77.1888 154.611 77.4167 154.189C77.6447 153.776 77.7798 153.244 77.839 152.602C77.8812 152.129 77.8558 151.707 77.7798 151.335C77.7038 150.964 77.5772 150.643 77.3914 150.389C77.2141 150.128 76.9777 149.925 76.7074 149.781C76.4203 149.638 76.1079 149.545 75.7617 149.52Z" fill="#0C1E21"/>
<path d="M70.4147 147.299L68.6921 156.115L66.8175 155.752L67.0033 154.257L66.9357 154.24C66.6233 154.764 66.2264 155.11 65.7282 155.27C65.23 155.431 64.698 155.456 64.1238 155.346C64.0225 155.329 63.9296 155.312 63.8536 155.296C63.7692 155.279 63.6932 155.262 63.6172 155.245L63.9972 153.286C64.0647 153.303 64.1407 153.32 64.2336 153.337C64.3265 153.362 64.4278 153.387 64.5376 153.404C65.0696 153.505 65.5256 153.505 65.914 153.404C66.3024 153.303 66.6148 153.109 66.8597 152.821C67.1046 152.534 67.2819 152.163 67.3917 151.707L68.329 146.885L70.4147 147.299Z" fill="#0C1E21"/>
<path d="M61.2548 144.977C62.1246 145.239 62.8086 145.652 63.3068 146.193C63.805 146.742 64.1174 147.392 64.2356 148.152C64.3538 148.912 64.2863 149.731 64.0161 150.617C63.7374 151.529 63.3321 152.281 62.8086 152.855C62.285 153.429 61.6602 153.809 60.9424 153.995C60.2247 154.181 59.4563 154.139 58.6287 153.894C57.683 153.607 56.9652 153.159 56.4839 152.56C56.0026 151.96 55.7408 151.251 55.6902 150.44C55.648 149.629 55.8084 148.76 56.1799 147.839L62.1584 149.663C62.3272 149.114 62.3779 148.625 62.3104 148.202C62.2428 147.78 62.0824 147.417 61.8206 147.138C61.5588 146.851 61.2126 146.649 60.782 146.514C60.2753 146.362 59.8278 146.345 59.4478 146.463C59.0678 146.581 58.7638 146.801 58.5527 147.122L56.6444 146.539C56.8977 146.007 57.2608 145.593 57.7337 145.289C58.1981 144.994 58.7385 144.816 59.338 144.766C59.9376 144.715 60.5878 144.774 61.2548 144.977ZM61.829 150.727L61.9388 150.989L57.5648 149.655L57.8265 149.486C57.6408 150.009 57.5817 150.457 57.6408 150.845C57.6999 151.225 57.8603 151.546 58.1052 151.8C58.3585 152.053 58.6794 152.239 59.0847 152.365C59.49 152.492 59.8785 152.509 60.2331 152.433C60.5878 152.348 60.9002 152.171 61.1788 151.884C61.4575 151.597 61.677 151.209 61.829 150.727Z" fill="#0C1E21"/>
<path d="M53.3666 142.503L47.3713 153.252L44.2892 151.53L45.5052 145.222L46.3158 142.072L46.2145 142.013L43.9599 144.352L39.2481 148.709L36.166 146.987L42.1613 136.237L44.0528 137.293L41.148 142.503L39.0117 146.201L39.1299 146.269L42.1107 143.389L46.9322 138.906L48.5957 139.834L47.2869 146.294L46.4171 150.356L46.5354 150.423L48.5535 146.657L51.4583 141.447L53.3666 142.503Z" fill="#0C1E21"/>
<path d="M38.1499 132.733C38.6734 133.155 39.0872 133.619 39.3743 134.118C39.6698 134.616 39.8387 135.148 39.8978 135.722C39.9569 136.288 39.8894 136.862 39.6867 137.436C39.4841 138.01 39.1632 138.584 38.7157 139.15C38.1415 139.868 37.4913 140.391 36.782 140.712C36.0727 141.033 35.3296 141.143 34.5696 141.033C33.8012 140.923 33.0581 140.577 32.3319 139.995C31.8168 139.581 31.4115 139.116 31.1244 138.61C30.8373 138.103 30.6684 137.571 30.6178 137.014C30.5671 136.457 30.6347 135.882 30.8289 135.308C31.0146 134.734 31.344 134.16 31.7999 133.586C32.3741 132.876 33.0159 132.353 33.7252 132.032C34.4429 131.711 35.1776 131.601 35.9375 131.702C36.6891 131.812 37.4237 132.15 38.1499 132.733ZM37.0691 134.101C36.706 133.814 36.326 133.645 35.9122 133.594C35.4985 133.543 35.0847 133.636 34.6709 133.847C34.2487 134.067 33.8434 134.421 33.4465 134.911C33.151 135.283 32.9315 135.637 32.7879 135.992C32.6444 136.347 32.5684 136.685 32.5768 136.997C32.5768 137.318 32.6528 137.613 32.7963 137.884C32.9399 138.154 33.1426 138.399 33.4212 138.618C33.7843 138.905 34.1643 139.074 34.5865 139.125C35.0003 139.176 35.414 139.091 35.8362 138.872C36.2584 138.652 36.6637 138.297 37.0691 137.791C37.3646 137.419 37.5841 137.064 37.7277 136.71C37.8712 136.355 37.9388 136.026 37.9388 135.705C37.9388 135.384 37.8544 135.097 37.7108 134.818C37.5673 134.54 37.3393 134.312 37.0691 134.101Z" fill="#0C1E21"/>
<path d="M33.868 129.262L27.5181 135.612L26.167 134.261L27.155 133.13L27.1043 133.079C26.5555 133.341 26.0319 133.4 25.5253 133.256C25.0271 133.113 24.5626 132.834 24.1489 132.42C24.0813 132.353 24.0138 132.285 23.9547 132.226C23.8956 132.167 23.8365 132.108 23.7773 132.049L25.1875 130.639C25.2382 130.689 25.2888 130.748 25.3564 130.816C25.4239 130.884 25.4915 130.96 25.5675 131.044C25.9475 131.424 26.3275 131.686 26.7074 131.812C27.0874 131.948 27.459 131.956 27.8136 131.863C28.1767 131.762 28.5314 131.551 28.886 131.238L32.365 127.759L33.868 129.262Z" fill="#0C1E21"/>
<path d="M27.5798 122.22C28.154 122.929 28.5002 123.647 28.61 124.382C28.7197 125.116 28.61 125.826 28.2891 126.527C27.9682 127.227 27.4447 127.869 26.7269 128.452C25.9838 129.06 25.2323 129.448 24.4723 129.634C23.7124 129.82 22.9862 129.786 22.2938 129.541C21.6014 129.296 20.9765 128.832 20.4276 128.165C19.8028 127.396 19.4566 126.628 19.389 125.859C19.3214 125.091 19.4988 124.356 19.9125 123.656C20.3263 122.955 20.9512 122.321 21.7702 121.772L25.7136 126.619C26.1612 126.256 26.4736 125.885 26.6594 125.488C26.8451 125.099 26.9042 124.711 26.8451 124.331C26.786 123.951 26.6171 123.58 26.33 123.233C25.9923 122.82 25.6376 122.558 25.2492 122.448C24.8608 122.33 24.4892 122.347 24.1346 122.499L22.8764 120.953C23.3915 120.658 23.9235 120.506 24.4723 120.523C25.0212 120.54 25.5701 120.692 26.1021 120.979C26.6509 121.257 27.1322 121.68 27.5798 122.22ZM24.8439 127.32L24.7932 127.599L21.9053 124.052L22.2178 124.061C21.7787 124.39 21.4747 124.736 21.3058 125.083C21.1454 125.437 21.0947 125.783 21.1623 126.138C21.2298 126.493 21.3987 126.822 21.6605 127.151C21.9307 127.481 22.2347 127.717 22.5724 127.844C22.9102 127.97 23.2733 127.996 23.6617 127.911C24.0501 127.827 24.447 127.633 24.8439 127.32Z" fill="#0C1E21"/>
<path d="M11.7847 102.527V100.529L12.2457 98.0324L10.2866 99.6074L8.51958 100.645L7.59766 99.0312L9.32626 98.0324L11.6695 97.1489L9.32626 96.227L7.63607 95.2666L8.51958 93.6917L10.2866 94.652L12.2457 96.227L11.7847 93.7301V91.771H13.667V93.7301L13.206 96.227L15.2035 94.652L16.9706 93.6917L17.8541 95.2666L16.1255 96.227L13.8206 97.1489L16.1255 98.0324L17.8541 99.0312L16.9706 100.645L15.2035 99.6074L13.206 98.0324L13.667 100.529V102.527H11.7847Z" fill="#0C1E21"/>
<path d="M104.093 14.3212V12.3237L104.554 9.82683L102.595 11.4018L100.828 12.439L99.9062 10.8256L101.635 9.82683L103.978 8.94332L101.635 8.0214L99.9447 7.06106L100.828 5.48611L102.595 6.44644L104.554 8.0214L104.093 5.52452V3.56543H105.976V5.52452L105.515 8.0214L107.512 6.44644L109.279 5.48611L110.163 7.06106L108.434 8.0214L106.129 8.94332L108.434 9.82683L110.163 10.8256L109.279 12.439L107.512 11.4018L105.515 9.82683L105.976 12.3237V14.3212H104.093Z" fill="#0C1E21"/>
<path d="M132.81 138.424V136.427L133.271 133.93L131.312 135.505L129.545 136.542L128.623 134.929L130.352 133.93L132.695 133.046L130.352 132.124L128.661 131.164L129.545 129.589L131.312 130.549L133.271 132.124L132.81 129.628V127.668H134.692V129.628L134.231 132.124L136.229 130.549L137.996 129.589L138.879 131.164L137.151 132.124L134.846 133.046L137.151 133.93L138.879 134.929L137.996 136.542L136.229 135.505L134.231 133.93L134.692 136.427V138.424H132.81Z" fill="#0C1E21"/>
</g>
<defs>
<clipPath id="clip0_2577_562">
<rect width="164.103" height="160.497" fill="white"/>
</clipPath>
</defs>
</svg>
