<svg width="66" height="66" viewBox="0 0 66 66" fill="none" xmlns="http://www.w3.org/2000/svg">
<g clip-path="url(#clip0_2171_338)">
<circle cx="30.6002" cy="33.4994" r="19.6724" fill="white"/>
<path d="M60.3904 17.1887C60.3124 15.472 60.3124 13.8333 60.3124 12.1946C60.3124 10.8681 59.298 9.85362 57.9714 9.85362C48.2173 9.85362 40.8042 7.04444 34.6396 1.03592C33.7032 0.177561 32.2986 0.177561 31.3622 1.03592C25.1977 7.04444 17.7845 9.85362 8.03045 9.85362C6.70389 9.85362 5.68947 10.8681 5.68947 12.1946C5.68947 13.8333 5.68947 15.472 5.61144 17.1887C5.2993 33.5756 4.83111 56.049 32.2206 65.491L33.0009 65.6471L33.7813 65.491C61.0927 56.049 60.7026 33.6536 60.3904 17.1887ZM31.1282 39.8962C30.66 40.2864 30.1137 40.5205 29.4895 40.5205H29.4114C28.7872 40.5205 28.1629 40.2084 27.7727 39.7402L20.5157 31.7028L24.0272 28.5815L29.7236 34.9021L42.3649 22.8851L45.5642 26.3185L31.1282 39.8962Z" fill="#1E8A8A"/>
</g>
<defs>
<clipPath id="clip0_2171_338">
<rect width="65.2549" height="65.2549" fill="white" transform="translate(0.37207 0.392151)"/>
</clipPath>
</defs>
</svg>
